<?xml version="1.0" standalone="no"?>
<!DOCTYPE svg PUBLIC "-//W3C//DTD SVG 20010904//EN"
 "http://www.w3.org/TR/2001/REC-SVG-20010904/DTD/svg10.dtd">
<svg version="1.0" xmlns="http://www.w3.org/2000/svg"
 width="256.000000pt" height="256.000000pt" viewBox="0 0 256.000000 256.000000"
 preserveAspectRatio="xMidYMid meet">
<metadata>
Created by potrace 1.14, written by Peter Selinger 2001-2017
</metadata>
<g transform="translate(0.000000,256.000000) scale(0.100000,-0.100000)"
fill="#000000" stroke="none">
<path d="M684 2487 c-36 -32 -39 -40 -39 -87 0 -47 3 -55 38 -86 35 -32 37
-38 37 -94 l0 -60 -248 0 c-180 0 -251 -3 -260 -12 -17 -17 -17 -839 0 -856 8
-8 67 -12 200 -12 l188 0 0 -60 0 -60 -268 0 c-195 0 -271 -3 -280 -12 -17
-17 -17 -1079 0 -1096 17 -17 1399 -17 1416 0 8 8 12 63 12 180 l0 168 88 0
c91 0 112 8 112 42 0 17 15 18 218 18 156 0 221 3 230 12 9 9 12 73 12 228 l0
216 59 18 c73 22 133 72 166 137 30 59 33 74 34 172 l1 77 48 0 c26 0 53 5 60
12 16 16 16 200 0 216 -8 8 -47 12 -110 12 l-98 0 0 83 c0 82 0 82 30 95 17 8
43 30 58 50 25 33 27 43 31 149 2 80 0 118 -9 128 -10 12 -41 15 -150 15 -109
0 -140 -3 -150 -15 -9 -10 -11 -48 -9 -128 4 -106 6 -116 31 -149 15 -20 41
-42 58 -50 30 -13 30 -13 30 -95 l0 -83 -220 0 -220 0 0 83 c0 82 0 82 30 95
17 8 43 30 58 50 25 33 27 43 30 149 3 79 0 118 -8 128 -18 22 -282 22 -300 0
-9 -10 -11 -48 -9 -128 4 -106 6 -116 31 -149 15 -20 41 -42 58 -50 30 -13 30
-13 30 -95 l0 -83 -98 0 c-63 0 -102 -4 -110 -12 -16 -16 -16 -200 0 -216 7
-7 34 -12 60 -12 l48 0 0 -79 c0 -97 22 -168 68 -221 36 -42 104 -82 160 -95
l32 -7 0 -89 0 -89 -90 0 c-80 0 -90 2 -90 18 0 34 -21 42 -112 42 l-88 0 0
168 c0 117 -4 172 -12 180 -9 9 -85 12 -280 12 l-268 0 0 60 0 60 188 0 c133
0 192 4 200 12 17 17 17 839 0 856 -9 9 -80 12 -260 12 l-248 0 0 60 c0 56 2
62 38 94 33 31 37 39 37 85 0 43 -4 55 -31 82 -23 23 -44 33 -77 36 -41 5 -48
2 -83 -30z m108 -72 c9 -21 9 -29 -5 -42 -13 -14 -21 -14 -42 -5 -27 12 -33
40 -13 60 20 20 48 14 60 -13z m448 -695 l0 -360 -480 0 -480 0 0 360 0 360
480 0 480 0 0 -360z m580 205 c0 -69 -2 -78 -26 -100 -33 -30 -73 -32 -105 -4
-21 18 -24 31 -28 100 l-3 79 81 0 81 0 0 -75z m520 0 c0 -66 -3 -77 -25 -100
-33 -32 -74 -32 -109 0 -24 22 -26 31 -26 100 l0 75 80 0 80 0 0 -75z m100
-485 l0 -40 -440 0 -440 0 0 40 0 40 440 0 440 0 0 -40z m-638 -185 c3 -58 8
-69 36 -98 32 -32 33 -32 147 -35 168 -5 206 19 213 135 l4 63 60 0 59 0 -2
-83 c-2 -97 -23 -153 -72 -190 -39 -29 -89 -47 -131 -47 -18 0 -37 -5 -44 -12
-9 -9 -12 -74 -12 -230 l0 -218 -190 0 -190 0 0 60 0 60 118 0 c78 0 122 4
130 12 17 17 17 299 0 316 -7 7 -26 12 -42 12 -81 0 -150 44 -185 115 -13 26
-19 64 -20 122 l-2 83 59 0 60 0 4 -65z m318 17 c0 -26 -5 -53 -12 -60 -8 -8
-47 -12 -110 -12 -110 0 -118 5 -118 79 l0 41 120 0 120 0 0 -48z m-1280 -52
l0 -60 -80 0 -80 0 0 60 0 60 80 0 80 0 0 -60z m560 -620 l0 -480 -640 0 -640
0 0 480 0 480 640 0 640 0 0 -480z m200 0 l0 -120 -60 0 -60 0 0 120 0 120 60
0 60 0 0 -120z"/>
<path d="M480 1960 c-11 -11 -20 -29 -20 -40 0 -26 34 -60 60 -60 26 0 60 34
60 60 0 11 -9 29 -20 40 -11 11 -29 20 -40 20 -11 0 -29 -9 -40 -20z"/>
<path d="M960 1960 c-11 -11 -20 -29 -20 -40 0 -11 9 -29 20 -40 11 -11 29
-20 40 -20 11 0 29 9 40 20 11 11 20 29 20 40 0 11 -9 29 -20 40 -11 11 -29
20 -40 20 -11 0 -29 -9 -40 -20z"/>
<path d="M530 1705 c-19 -23 -3 -103 32 -155 50 -75 118 -110 209 -106 116 4
211 91 226 207 10 68 8 69 -237 69 -181 0 -220 -3 -230 -15z m380 -77 c0 -22
-49 -75 -85 -92 -64 -31 -157 -4 -200 57 -31 45 -25 47 135 47 107 0 150 -3
150 -12z"/>
<path d="M662 940 c-12 -12 -22 -30 -22 -41 0 -24 -57 -61 -79 -50 -14 6 -33
7 -71 2 -15 -2 -90 -124 -90 -148 0 -12 11 -35 25 -51 32 -38 32 -74 -1 -107
-33 -33 -28 -63 20 -139 36 -56 66 -73 108 -57 32 12 87 -17 88 -46 0 -42 37
-63 111 -63 88 0 114 11 128 52 14 41 57 69 88 57 22 -8 54 -6 73 6 16 10 80
125 80 145 0 10 -11 32 -25 48 -32 38 -32 74 1 107 33 33 28 63 -20 139 -36
57 -66 73 -108 57 -33 -12 -73 11 -87 50 -17 49 -37 58 -122 59 -62 0 -79 -4
-97 -20z m144 -85 c3 -20 51 -65 70 -65 5 0 16 -6 23 -12 6 -7 32 -13 57 -13
38 0 48 -4 62 -27 15 -26 15 -28 -6 -51 -41 -43 -27 -187 18 -187 5 0 0 -16
-11 -35 -19 -32 -24 -34 -57 -30 -50 7 -131 -38 -152 -83 -13 -30 -17 -33 -54
-30 -29 2 -40 8 -42 21 -4 27 -18 41 -74 71 -40 22 -59 27 -85 22 -31 -6 -36
-4 -50 24 -15 29 -15 32 5 57 29 37 29 138 -1 169 -20 21 -20 24 -4 53 14 29
19 31 50 25 26 -5 45 0 85 22 55 30 70 44 75 71 2 10 4 19 4 21 1 2 20 2 43 0
32 -2 42 -7 44 -23z"/>
<path d="M700 722 c-99 -50 -103 -182 -7 -243 25 -16 43 -19 81 -15 135 15
170 185 53 256 -40 25 -81 25 -127 2z m100 -82 c11 -11 20 -29 20 -40 0 -26
-34 -60 -60 -60 -11 0 -29 9 -40 20 -11 11 -20 29 -20 40 0 11 9 29 20 40 11
11 29 20 40 20 11 0 29 -9 40 -20z"/>
</g>
</svg>
