<?xml version="1.0" standalone="no"?>
<!DOCTYPE svg PUBLIC "-//W3C//DTD SVG 20010904//EN"
 "http://www.w3.org/TR/2001/REC-SVG-20010904/DTD/svg10.dtd">
<svg version="1.0" xmlns="http://www.w3.org/2000/svg"
 width="500.000000pt" height="500.000000pt" viewBox="0 0 500.000000 500.000000"
 preserveAspectRatio="xMidYMid meet">
<metadata>
Created by potrace 1.14, written by Peter Selinger 2001-2017
</metadata>
<g transform="translate(0.000000,500.000000) scale(0.100000,-0.100000)"
fill="#000000" stroke="none">
<path d="M4077 4474 c-94 -33 -182 -119 -278 -272 -239 -381 -338 -541 -397
-640 l-67 -113 -85 6 c-47 4 -98 8 -113 10 -25 3 -171 12 -327 21 -76 4 -604
4 -665 0 -27 -2 -102 -7 -165 -11 -63 -3 -128 -8 -145 -9 -16 -2 -66 -7 -110
-11 -44 -3 -91 -8 -105 -10 -62 -8 -187 -26 -210 -30 -14 -2 -56 -9 -95 -15
-324 -50 -642 -164 -759 -271 -89 -81 -102 -147 -70 -359 42 -280 124 -539
254 -805 189 -386 434 -672 730 -851 l65 -39 -1 -70 c0 -40 5 -81 12 -96 35
-71 248 -154 469 -183 207 -28 748 -29 880 -2 11 2 41 7 67 10 152 21 332 87
396 147 33 31 37 49 33 147 0 26 5 35 27 44 149 65 386 264 533 448 155 193
312 485 406 755 23 67 69 217 78 260 46 202 58 290 58 416 0 54 -4 75 -26 111
-47 81 -179 163 -363 226 -94 33 -325 92 -356 92 -10 0 -18 4 -18 10 0 5 90
135 199 289 244 340 302 429 329 503 75 201 -17 349 -181 292z m104 -106 c18
-33 4 -121 -29 -191 -28 -60 -250 -377 -591 -847 -90 -124 -167 -227 -172
-230 -7 -5 -126 -5 -151 -1 -11 2 638 1057 705 1146 90 119 208 180 238 123z
m-1261 -982 c184 -12 343 -26 348 -31 2 -2 -2 -13 -8 -25 -11 -21 -16 -22 -88
-15 -43 3 -103 8 -134 11 -35 2 -76 14 -104 29 -57 30 -131 33 -189 6 -34 -15
-64 -18 -195 -16 -95 1 -170 7 -194 14 -42 15 -148 10 -169 -7 -21 -18 -305
-30 -442 -19 -44 3 -71 -1 -104 -15 -24 -10 -58 -20 -75 -23 -17 -2 -53 -7
-81 -10 -69 -9 -97 -13 -190 -31 -44 -8 -98 -17 -120 -20 -45 -6 -249 -76
-308 -106 -93 -46 -140 -116 -123 -183 9 -36 68 -91 134 -124 53 -26 190 -74
244 -85 13 -2 52 -11 88 -20 36 -8 97 -20 135 -26 171 -27 174 -27 360 -46 33
-3 71 -7 85 -9 22 -3 121 -10 325 -21 87 -4 627 -4 710 1 282 16 447 30 625
55 74 11 160 24 190 30 30 6 66 14 80 16 140 27 309 86 377 132 85 57 113 127
74 190 -46 73 -229 154 -446 198 -49 10 -91 19 -93 20 -2 1 3 12 10 23 14 24
27 24 148 -3 329 -71 551 -169 594 -261 24 -50 20 -71 -25 -120 -96 -104 -402
-208 -799 -271 -14 -2 -38 -6 -55 -9 -16 -2 -52 -7 -80 -10 -27 -3 -61 -7 -75
-10 -14 -2 -54 -7 -90 -10 -36 -3 -81 -8 -100 -10 -42 -5 -200 -16 -285 -20
-80 -4 -719 -5 -770 -1 -22 2 -89 6 -150 10 -60 4 -128 9 -150 11 -22 2 -69 7
-105 10 -36 3 -76 8 -90 10 -14 3 -45 7 -70 10 -25 3 -56 7 -70 10 -14 3 -45
7 -70 10 -58 7 -219 40 -341 70 -295 73 -477 172 -493 266 -21 133 352 288
877 364 150 21 253 34 337 41 41 3 89 7 105 9 17 2 104 7 195 11 91 3 166 7
168 9 5 4 574 -3 672 -9z m-11 -125 c16 -12 38 -44 51 -75 24 -59 46 -73 80
-49 19 13 21 22 17 55 l-5 40 66 -7 c37 -3 67 -7 69 -8 1 -1 -20 -40 -47 -86
-45 -78 -52 -85 -98 -100 -77 -26 -127 -73 -158 -148 -26 -60 -27 -87 -6 -106
29 -27 67 -8 82 40 26 80 89 133 157 133 50 -1 110 -36 139 -82 48 -75 52 -78
85 -66 21 7 29 16 29 34 0 35 -26 82 -68 127 l-36 37 82 0 c93 0 89 -2 166
102 53 72 49 71 136 53 8 -2 19 -4 24 -4 4 -1 -13 -16 -40 -33 -34 -24 -58
-51 -82 -95 -35 -66 -36 -95 -2 -113 28 -15 49 -2 74 49 37 72 90 111 150 111
32 0 76 -36 92 -76 17 -42 46 -59 74 -44 28 15 29 53 3 103 -14 28 -14 29 9
22 13 -4 41 -17 63 -27 94 -47 101 -83 23 -128 -47 -27 -196 -81 -259 -94 -13
-3 -35 -8 -49 -11 -37 -9 -159 -31 -220 -41 -19 -3 -42 -7 -50 -9 -8 -2 -49
-7 -90 -11 -41 -3 -78 -8 -81 -10 -3 -1 -45 -6 -95 -9 -49 -4 -100 -8 -113
-10 -54 -9 -384 -19 -616 -19 -465 0 -786 23 -1120 80 -26 4 -219 47 -267 58
-93 23 -222 86 -238 116 -12 23 11 55 60 80 54 27 61 26 56 -14 -5 -36 10 -58
42 -62 25 -4 41 15 53 60 17 66 55 103 116 112 33 4 45 1 70 -20 17 -14 33
-40 37 -57 8 -41 23 -59 50 -59 48 0 61 57 27 123 -10 20 -16 39 -12 41 10 6
162 28 167 24 2 -3 -1 -19 -6 -37 -11 -39 1 -76 28 -83 31 -8 49 9 67 61 32
97 120 138 204 93 33 -18 58 -54 81 -119 14 -37 31 -46 65 -33 31 12 33 56 5
117 -10 24 -16 44 -12 46 4 2 36 4 71 6 58 2 63 1 56 -16 -18 -45 -17 -78 3
-96 30 -27 68 -8 82 40 14 53 39 82 85 97 77 27 136 -1 171 -81 19 -43 28 -53
48 -53 49 0 65 46 35 102 -9 17 -5 18 61 18 l72 0 -7 -32 c-4 -18 -7 -35 -7
-38 -1 -30 6 -42 27 -52 20 -9 28 -8 44 6 11 10 23 31 26 47 20 91 129 133
204 80z m-2214 -539 c88 -44 260 -102 375 -127 8 -2 44 -10 80 -19 85 -20 305
-57 425 -71 28 -3 64 -8 80 -10 17 -2 64 -7 105 -10 41 -4 91 -8 110 -10 259
-28 931 -27 1240 1 154 14 278 27 365 40 55 8 116 17 135 20 19 2 69 11 110
20 310 64 510 132 644 219 27 18 27 18 22 -6 -3 -13 -13 -62 -22 -109 -40
-207 -124 -446 -235 -671 -187 -378 -450 -671 -739 -822 -76 -40 -177 -77
-250 -91 -211 -41 -283 -51 -445 -61 -97 -6 -376 -6 -455 0 -69 5 -232 24
-265 31 -11 3 -35 7 -54 10 -178 30 -317 84 -464 181 -329 217 -607 617 -770
1105 -42 123 -87 301 -103 407 l-7 45 29 -21 c16 -11 56 -34 89 -51z m996
-1708 c55 -19 235 -60 309 -69 30 -4 57 -8 60 -10 3 -1 50 -6 105 -11 184 -15
594 -9 716 11 13 2 71 11 129 20 58 8 147 26 197 39 l93 24 -4 -32 c-2 -17 -4
-35 -5 -39 -2 -13 -122 -66 -197 -86 -85 -24 -239 -48 -359 -57 -167 -13 -581
-6 -665 11 -14 3 -45 8 -70 11 -122 15 -263 58 -332 101 -34 21 -38 28 -38 63
0 45 1 46 61 24z"/>
<path d="M2524 3066 c-102 -27 -198 -145 -173 -212 17 -47 82 -30 94 25 11 50
81 101 140 101 35 0 83 -45 91 -85 8 -47 34 -68 66 -56 34 13 40 32 23 86 -34
114 -130 170 -241 141z"/>
<path d="M1461 3013 c-56 -20 -141 -103 -141 -136 0 -32 33 -61 59 -52 11 3
29 20 38 37 35 59 138 87 203 53 19 -10 34 -30 46 -62 23 -62 32 -73 59 -73
81 0 43 151 -53 215 -51 33 -148 42 -211 18z"/>
<path d="M1977 3010 c-71 -21 -131 -93 -142 -171 -8 -53 7 -72 51 -67 23 3 30
11 45 57 20 62 50 90 96 91 67 0 108 -34 122 -103 14 -67 95 -57 93 11 -1 36
-37 110 -66 135 -51 45 -137 65 -199 47z"/>
<path d="M2383 2149 c-6 -6 -52 -11 -111 -11 -66 0 -102 -4 -105 -12 -2 -6 -3
-37 -2 -68 1 -62 4 -59 -60 -62 -17 -1 -20 -8 -21 -58 0 -31 -6 -63 -13 -71
-7 -9 -11 -28 -9 -44 2 -22 9 -29 30 -31 38 -4 56 30 34 63 -9 14 -16 45 -16
70 l0 45 56 0 c34 0 61 -5 70 -14 18 -19 45 -14 62 12 12 18 11 23 -7 41 -25
25 -35 26 -55 6 -30 -30 -43 -18 -44 40 l0 55 89 0 c67 0 96 -4 115 -17 24
-15 26 -15 44 3 28 27 16 64 -19 64 -15 0 -32 -5 -38 -11z m44 -35 c-9 -9 -28
6 -21 18 4 6 10 6 17 -1 6 -6 8 -13 4 -17z m-153 -135 c-8 -14 -24 -10 -24 6
0 9 6 12 15 9 8 -4 12 -10 9 -15z m-164 -150 c0 -5 -7 -9 -15 -9 -15 0 -20 12
-9 23 8 8 24 -1 24 -14z"/>
<path d="M2551 2151 c-20 -13 -6 -57 21 -64 13 -4 29 0 38 8 12 11 41 15 103
15 48 0 88 -3 88 -7 1 -5 2 -29 3 -55 2 -52 -12 -62 -45 -32 -29 26 -77 -12
-63 -50 8 -21 46 -27 64 -11 11 10 38 15 73 15 l56 0 -2 -48 c-1 -27 -8 -56
-15 -65 -17 -20 -12 -46 11 -61 36 -23 75 35 46 70 -7 9 -14 39 -15 67 -1 29
-3 56 -3 60 -1 5 -9 7 -18 6 -53 -5 -63 0 -61 34 0 17 0 48 -1 69 l-1 36 -101
0 c-61 0 -105 4 -112 11 -13 13 -46 14 -66 2z m41 -26 c0 -5 -5 -11 -11 -13
-6 -2 -11 4 -11 13 0 9 5 15 11 13 6 -2 11 -8 11 -13z m155 -151 c-9 -9 -28 6
-21 18 4 6 10 6 17 -1 6 -6 8 -13 4 -17z m164 -147 c-13 -13 -26 -3 -16 12 3
6 11 8 17 5 6 -4 6 -10 -1 -17z"/>
<path d="M2413 1983 c-7 -3 -13 -16 -13 -29 0 -22 -4 -24 -55 -24 l-54 0 -3
-57 -3 -58 -32 3 c-25 3 -33 0 -33 -12 0 -13 11 -16 51 -16 46 0 50 2 49 23
-1 12 -2 37 -1 55 l1 32 180 0 180 0 0 -55 0 -55 51 0 c57 0 66 23 11 28 -30
3 -31 5 -34 55 l-3 52 -52 3 c-48 3 -52 5 -55 29 -4 39 -28 42 -28 4 0 -28 -3
-31 -30 -31 -27 0 -30 3 -30 31 0 20 -4 29 -12 27 -7 -3 -13 -16 -13 -29 0
-19 -6 -25 -27 -27 -23 -3 -27 1 -30 26 -2 18 -8 27 -15 25z"/>
<path d="M2362 1869 c-15 -6 -17 -24 -17 -147 1 -78 4 -144 7 -147 6 -7 289
-8 295 -1 6 5 4 288 -2 294 -7 7 -263 8 -283 1z m262 -149 l-1 -125 -121 0
c-67 0 -123 2 -123 5 -1 3 -3 59 -3 125 l-2 120 125 0 126 0 -1 -125z"/>
<path d="M2423 1767 c-14 -21 -10 -96 4 -101 7 -3 13 1 13 9 0 8 7 15 15 15 8
0 15 -6 15 -13 0 -8 7 -14 15 -14 13 0 15 11 13 55 -3 55 -3 56 -35 58 -18 1
-36 -3 -40 -9z m47 -34 c0 -7 -7 -13 -15 -13 -8 0 -15 6 -15 13 0 8 7 14 15
14 8 0 15 -6 15 -14z"/>
<path d="M2535 1721 c0 -51 2 -57 20 -57 18 0 20 6 20 57 0 50 -2 57 -20 57
-18 0 -20 -7 -20 -57z"/>
<path d="M2223 1728 c-7 -13 -2 -16 27 -18 47 -4 70 0 70 13 0 14 -88 19 -97
5z"/>
<path d="M2680 1723 c0 -13 8 -15 55 -15 41 0 45 1 45 15 0 8 -16 12 -50 12
-33 0 -50 -4 -50 -12z"/>
<path d="M2074 1642 c-20 -13 -23 -50 -5 -66 12 -11 16 -27 14 -53 -6 -66 3
-81 45 -85 l37 -3 1 -50 c1 -27 2 -57 3 -67 1 -14 15 -16 102 -16 61 0 105 -4
112 -11 15 -15 52 -14 64 2 21 25 -1 66 -34 67 -6 0 -18 -7 -27 -15 -11 -11
-38 -15 -103 -15 l-89 0 -1 55 c0 59 13 71 48 39 13 -12 22 -13 37 -5 30 16
34 49 8 67 -23 14 -56 10 -56 -7 0 -5 -27 -9 -60 -9 l-60 0 0 45 c0 25 7 56
16 70 26 40 -13 84 -52 57z m36 -31 c0 -17 -18 -21 -24 -6 -3 9 0 15 9 15 8 0
15 -4 15 -9z m161 -154 c-1 -12 -15 -9 -19 4 -3 6 1 10 8 8 6 -3 11 -8 11 -12z
m157 -138 c-2 -6 -8 -10 -13 -10 -5 0 -11 4 -13 10 -2 6 4 11 13 11 9 0 15 -5
13 -11z"/>
<path d="M2220 1635 c0 -10 11 -15 35 -15 l35 0 0 -55 0 -55 54 0 c52 0 55 -1
58 -27 2 -16 8 -28 13 -28 6 0 11 12 13 28 3 21 9 27 28 27 13 0 25 -4 25 -10
1 -5 3 -14 4 -20 1 -5 3 -14 4 -20 3 -24 21 -7 21 20 0 27 3 30 30 30 27 0 30
-3 30 -31 0 -38 24 -35 28 4 3 24 7 26 55 29 l52 3 3 53 c3 54 6 57 60 55 6
-1 12 5 12 13 0 10 -14 14 -50 14 l-50 0 0 -55 0 -55 -180 0 -180 0 -1 28 c-1
15 0 39 1 55 1 26 0 27 -49 27 -39 0 -51 -4 -51 -15z"/>
<path d="M2872 1638 c-16 -16 -15 -43 2 -57 8 -6 14 -32 15 -61 l1 -50 -56 0
c-36 0 -61 5 -71 15 -22 22 -72 3 -73 -27 0 -5 9 -17 21 -29 19 -19 22 -19 46
-4 37 25 49 14 48 -41 l-1 -49 -92 -3 c-52 -2 -92 1 -92 7 0 5 -11 12 -25 15
-42 11 -72 -33 -43 -62 15 -15 50 -16 65 -1 6 6 54 10 112 11 l101 0 1 26 c1
15 1 38 1 52 -2 55 5 65 45 65 l38 0 0 64 c1 41 5 66 13 69 16 5 16 44 0 60
-7 7 -19 12 -28 12 -9 0 -21 -5 -28 -12z m42 -33 c-4 -8 -10 -12 -15 -9 -14 8
-10 24 6 24 9 0 12 -6 9 -15z m-164 -143 c0 -13 -12 -22 -22 -16 -10 6 -1 24
13 24 5 0 9 -4 9 -8z m-159 -145 c-1 -12 -15 -9 -19 4 -3 6 1 10 8 8 6 -3 11
-8 11 -12z"/>
</g>
</svg>
